<svg width="703" height="134" viewBox="0 0 703 134" fill="none" xmlns="http://www.w3.org/2000/svg">
<path d="M59.3514 23.751C66.7062 17.2337 77.4871 17.5468 84.0346 24.2787C85.8333 26.1372 87.216 28.376 88.0865 30.8394C88.9571 33.3029 89.2944 35.9316 89.0751 38.5426C88.3684 38.6061 87.6642 38.697 86.9641 38.8151L86.8004 38.8441L86.744 38.8557H86.7271L86.7101 38.8673L81.1729 39.9921L83.363 51.3685L88.8776 50.2436H88.9058L89.1316 50.203C90.3696 50.0202 91.6254 50.0007 92.8682 50.145C96.5998 50.6811 100.06 52.4521 102.723 55.1896C109.598 62.2577 109.598 74.0979 102.249 81.6474C100.661 83.2812 98.8061 84.6158 96.7685 85.5902L92.2248 87.753L93.7713 92.6468C95.3687 97.6798 94.1721 103.606 90.0855 107.809C84.3112 113.741 75.297 113.706 69.9574 108.215C67.8294 106.035 66.4917 103.02 66.1022 99.686C65.6507 95.8127 66.5199 91.8524 68.5293 88.8083L71.1484 84.8422L60.8077 74.2197L58.3411 66.6239L50.9412 64.0842L45.2064 58.1931L41.7069 59.7065C36.7793 61.8461 31.5299 61.3184 26.8732 58.4192C25.4294 57.5096 24.0956 56.4274 22.8996 55.1954C16.0246 48.133 16.0246 36.2928 23.3737 28.7376C30.2035 21.7216 40.9279 21.8086 48.1359 28.3897C48.388 28.6216 48.6364 28.8632 48.881 29.1145C52.9619 33.3009 53.7126 36.7683 54.2658 41.1924L54.9883 46.9385L66.1812 45.4658L65.4644 39.7138C64.8548 34.8258 63.7936 29.445 59.3514 23.751ZM100.268 40.1603C100.727 35.7684 100.224 31.3267 98.7961 27.1602C97.3683 22.9938 95.0517 19.2079 92.0159 16.0798C80.6818 4.43097 62.3486 4.69769 50.7719 16.0914C39.7313 9.46972 25.2589 10.3975 15.3924 20.5387C3.84952 32.3963 3.42618 51.583 14.9183 63.3884C15.9431 64.443 17.0329 65.4288 18.1808 66.3398C17.9783 67.5595 17.7127 68.7673 17.3849 69.9579C16.3843 73.539 15.1607 77.0504 13.7217 80.4703C10.51 88.2343 6.62659 95.1401 3.99063 97.8537L0 101.953L23.9438 126.555L27.9344 122.456C32.2275 118.188 36.8692 114.306 41.8085 110.854C45.0089 108.65 48.1811 106.841 50.9864 105.786C53.12 104.98 54.6157 104.777 55.5922 104.835C56.684 109.206 58.8849 113.202 61.9705 116.414C71.9329 126.654 88.0987 126.254 98.0668 116.008C100.88 113.139 103.017 109.645 104.312 105.795C105.608 101.946 106.028 97.8428 105.54 93.8007C107.228 92.6461 108.799 91.3214 110.231 89.8462C121.779 77.9886 122.197 58.8019 110.705 46.9965C107.756 43.9579 104.193 41.6279 100.268 40.1603ZM55.0334 93.2208C52.2394 93.2672 49.5075 93.9862 47.103 94.8908C43.118 96.3925 39.1104 98.7524 35.5318 101.211C31.5347 103.987 27.715 107.024 24.0962 110.303L15.5505 101.524C18.6831 96.8912 21.7424 90.7392 24.1131 84.9988C25.8064 80.911 27.274 76.7362 28.2674 73.0252L28.6174 71.6684C33.0652 72.8861 37.7614 72.9441 42.3899 71.6916L43.9026 73.2456L35.9213 81.4444L43.9026 89.6491L51.8838 81.4444L56.8905 86.5933C56.0044 88.7146 55.3844 90.9409 55.0334 93.2208Z" fill="#007E61"/>
<path d="M215.522 35.288V98H200.246V60.3907L186.22 98H173.892L159.778 60.3013V98H144.502V35.288H162.547L180.146 78.704L197.566 35.288H215.522ZM296.544 35.288V98H281.268V60.3907L267.243 98H254.915L240.8 60.3013V98H225.524V35.288H243.569L261.168 78.704L278.588 35.288H296.544ZM377.567 35.288V98H362.291V60.3907L348.265 98H335.937L321.823 60.3013V98H306.547V35.288H324.592L342.191 78.704L359.611 35.288H377.567ZM458.589 35.288V98H443.313V60.3907L429.288 98H416.96L402.845 60.3013V98H387.569V35.288H405.615L423.213 78.704L440.633 35.288H458.589ZM539.612 35.288V98H524.336V60.3907L510.31 98H497.982L483.868 60.3013V98H468.592V35.288H486.637L504.236 78.704L521.656 35.288H539.612ZM546.577 72.9867C546.577 67.8649 547.53 63.3684 549.436 59.4973C551.401 55.6262 554.051 52.6484 557.386 50.564C560.721 48.4796 564.444 47.4373 568.553 47.4373C572.067 47.4373 575.134 48.152 577.754 49.5813C580.434 51.0107 582.489 52.8867 583.918 55.2093V48.152H599.194V98H583.918V90.9427C582.429 93.2653 580.345 95.1413 577.665 96.5707C575.045 98 571.977 98.7147 568.464 98.7147C564.414 98.7147 560.721 97.6724 557.386 95.588C554.051 93.444 551.401 90.4364 549.436 86.5653C547.53 82.6347 546.577 78.1084 546.577 72.9867ZM583.918 73.076C583.918 69.2644 582.846 66.2569 580.702 64.0533C578.618 61.8498 576.057 60.748 573.02 60.748C569.982 60.748 567.392 61.8498 565.248 64.0533C563.163 66.1973 562.121 69.1751 562.121 72.9867C562.121 76.7982 563.163 79.8356 565.248 82.0987C567.392 84.3022 569.982 85.404 573.02 85.404C576.057 85.404 578.618 84.3022 580.702 82.0987C582.846 79.8951 583.918 76.8876 583.918 73.076ZM616.946 42.9707C614.266 42.9707 612.062 42.1964 610.335 40.648C608.668 39.04 607.834 37.0747 607.834 34.752C607.834 32.3698 608.668 30.4044 610.335 28.856C612.062 27.248 614.266 26.444 616.946 26.444C619.566 26.444 621.71 27.248 623.378 28.856C625.105 30.4044 625.968 32.3698 625.968 34.752C625.968 37.0747 625.105 39.04 623.378 40.648C621.71 42.1964 619.566 42.9707 616.946 42.9707ZM624.539 48.152V98H609.263V48.152H624.539ZM641.773 98.7147C639.093 98.7147 636.89 97.9404 635.163 96.392C633.495 94.784 632.661 92.8187 632.661 90.496C632.661 88.1138 633.495 86.1187 635.163 84.5107C636.89 82.9027 639.093 82.0987 641.773 82.0987C644.394 82.0987 646.538 82.9027 648.205 84.5107C649.933 86.1187 650.796 88.1138 650.796 90.496C650.796 92.8187 649.933 94.784 648.205 96.392C646.538 97.9404 644.394 98.7147 641.773 98.7147ZM666.003 98.7147C663.323 98.7147 661.12 97.9404 659.392 96.392C657.725 94.784 656.891 92.8187 656.891 90.496C656.891 88.1138 657.725 86.1187 659.392 84.5107C661.12 82.9027 663.323 82.0987 666.003 82.0987C668.624 82.0987 670.768 82.9027 672.435 84.5107C674.162 86.1187 675.026 88.1138 675.026 90.496C675.026 92.8187 674.162 94.784 672.435 96.392C670.768 97.9404 668.624 98.7147 666.003 98.7147ZM690.233 98.7147C687.553 98.7147 685.349 97.9404 683.622 96.392C681.954 94.784 681.121 92.8187 681.121 90.496C681.121 88.1138 681.954 86.1187 683.622 84.5107C685.349 82.9027 687.553 82.0987 690.233 82.0987C692.853 82.0987 694.997 82.9027 696.665 84.5107C698.392 86.1187 699.255 88.1138 699.255 90.496C699.255 92.8187 698.392 94.784 696.665 96.392C694.997 97.9404 692.853 98.7147 690.233 98.7147Z" fill="#007E61"/>
</svg>
